<svg width="112" height="87" viewBox="0 0 112 87" fill="none" xmlns="http://www.w3.org/2000/svg">
<g clip-path="url(#clip0_0_121)">
<path d="M66.6494 61.1291L33.6445 79.9594C33.574 79.9933 33.5145 80.0463 33.4729 80.1122C33.4313 80.1781 33.4092 80.2543 33.4092 80.3321C33.4092 80.4099 33.4313 80.4861 33.4729 80.5521C33.5145 80.618 33.574 80.671 33.6445 80.7049L44.2105 86.7791C44.4777 86.9291 44.7794 87.008 45.0864 87.008C45.3933 87.008 45.695 86.9291 45.9622 86.7791L78.2999 68.3078C78.3704 68.2739 78.4299 68.221 78.4715 68.155C78.5131 68.0891 78.5352 68.0129 78.5352 67.9351C78.5352 67.8573 78.5131 67.7811 78.4715 67.7152C78.4299 67.6492 78.3704 67.5963 78.2999 67.5623L67.1777 61.1291C67.1058 61.0632 67.0115 61.0266 66.9136 61.0266C66.8157 61.0266 66.7214 61.0632 66.6494 61.1291Z" fill="#E7EBEC"/>
<path d="M35.4796 75.8454V79.9042L45.0169 85.3986V81.3123L35.4796 75.8454Z" fill="#969290"/>
<path d="M76.4369 63.3104L45.0169 81.3123V85.3986L76.4369 67.3967V63.3104Z" fill="#C5C7C7"/>
<path d="M66.8997 57.8435L35.4796 75.8454L45.0169 81.3123L76.4369 63.3104L66.8997 57.8435Z" fill="url(#paint0_linear_0_121)"/>
<path d="M37.6485 74.9895L66.2324 58.6166C66.4333 58.4946 66.6642 58.4301 66.8997 58.4301C67.1352 58.4301 67.3661 58.4946 67.567 58.6166L74.2959 62.4821C74.3715 62.5221 74.4347 62.5818 74.4788 62.6547C74.5229 62.7277 74.5462 62.8111 74.5462 62.8962C74.5462 62.9813 74.5229 63.0648 74.4788 63.1377C74.4347 63.2107 74.3715 63.2704 74.2959 63.3104L45.712 79.6833C45.5111 79.8053 45.2802 79.8699 45.0447 79.8699C44.8092 79.8699 44.5782 79.8053 44.3773 79.6833L37.6485 75.8454C37.5735 75.8015 37.5114 75.7389 37.4683 75.6639C37.4251 75.5888 37.4024 75.5039 37.4024 75.4175C37.4024 75.3311 37.4251 75.2462 37.4683 75.1711C37.5114 75.0961 37.5735 75.0335 37.6485 74.9895Z" fill="#E7EBEC"/>
<path d="M51.857 27.2514L51.2731 67.4243C51.2949 67.8407 51.4307 68.2433 51.6659 68.5888C51.9011 68.9342 52.2268 69.2094 52.6078 69.3846C53.6224 69.8877 54.7408 70.1496 55.8749 70.1496C57.0089 70.1496 58.1274 69.8877 59.142 69.3846C59.5203 69.2176 59.8465 68.9526 60.0862 68.6175C60.3259 68.2823 60.4704 67.8892 60.5045 67.4795L60.0318 27.2514H51.857Z" fill="#B3D7F3"/>
<path d="M60.0874 36.3351C60.0622 36.6975 59.9373 37.0462 59.7265 37.3431C59.5157 37.64 59.227 37.8739 58.8918 38.0194C57.99 38.4687 56.9951 38.7027 55.9861 38.7027C54.9772 38.7027 53.9822 38.4687 53.0804 38.0194C52.7487 37.869 52.4633 37.6338 52.2532 37.3379C52.0431 37.0419 51.916 36.6959 51.8848 36.3351V38.7924C51.9476 39.1254 52.0886 39.4389 52.2964 39.7075C52.5041 39.9762 52.7727 40.1924 53.0804 40.3386C53.993 40.8015 55.0031 41.0429 56.0278 41.0429C57.0525 41.0429 58.0626 40.8015 58.9752 40.3386C59.2743 40.2024 59.5379 39.9995 59.7452 39.7457C59.9526 39.4919 60.0982 39.194 60.1709 38.8753L60.0874 36.3351Z" fill="#5778BA"/>
<path d="M60.2264 43.9832C60.1768 44.3456 60.0362 44.6898 59.8175 44.9841C59.5989 45.2784 59.3092 45.5134 58.9752 45.6674C58.0431 46.1314 57.0148 46.373 55.9722 46.373C54.9296 46.373 53.9013 46.1314 52.9692 45.6674C52.6422 45.5184 52.3572 45.2919 52.139 45.0079C51.9209 44.7238 51.7763 44.3909 51.718 44.0384L51.3565 67.4243C51.3783 67.8407 51.5141 68.2433 51.7493 68.5888C51.9845 68.9342 52.3102 69.2094 52.6912 69.3846C53.7058 69.8877 54.8242 70.1496 55.9583 70.1496C57.0923 70.1496 58.2108 69.8877 59.2254 69.3846C59.6037 69.2176 59.9299 68.9526 60.1696 68.6175C60.4093 68.2823 60.5538 67.8892 60.5879 67.4795L60.2264 43.9832Z" fill="url(#paint1_linear_0_121)"/>
<path d="M112 25.65L43.5154 64.9118L0 39.9797V39.2618L68.4846 0.386551L112 24.9321V25.65Z" fill="#C5C7C7"/>
<path d="M43.5154 63.0067L2.78055 39.6484L68.4846 1.98794L109.192 25.3462L43.5154 63.0067Z" fill="white"/>
<path d="M68.4846 0L0 39.2618L43.5154 64.1111L112 24.8493L68.4846 0ZM2.80837 39.2618L68.4846 1.6014L109.22 24.9597L43.5154 62.6201L2.80837 39.2618Z" fill="#D5D4D4"/>
<path d="M17.6286 46.4957L6.11719 39.8969L25.6922 28.6595L37.2036 35.2583L17.6286 46.4957Z" fill="#7B98CE"/>
<path d="M39.1777 34.1263L27.6663 27.5275L47.2413 16.2901L58.7527 22.8889L39.1777 34.1263Z" fill="#7B98CE"/>
<path d="M60.7547 21.7569L49.2433 15.158L68.8183 3.92066L80.3297 10.5195L60.7547 21.7569Z" fill="#7B98CE"/>
<path d="M30.3635 53.7572L18.8521 47.1584L38.427 35.921L49.9384 42.5198L30.3635 53.7572Z" fill="#7B98CE"/>
<path d="M51.9404 41.3878L40.429 34.789L60.004 23.5516L71.5154 30.1504L51.9404 41.3878Z" fill="#7B98CE"/>
<path d="M73.4896 29.0184L61.9781 22.4196L81.5531 11.1822L93.0645 17.8086L73.4896 29.0184Z" fill="#7B98CE"/>
<path d="M43.0427 61.0463L31.5313 54.4475L51.1063 43.2377L62.6177 49.8366L43.0427 61.0463Z" fill="#7B98CE"/>
<path d="M64.5919 48.7045L53.0804 42.0781L72.6554 30.8683L84.1668 37.4671L64.5919 48.7045Z" fill="#7B98CE"/>
<path d="M86.1688 36.3351L74.6574 29.7363L94.2324 18.4989L105.744 25.0977L86.1688 36.3351Z" fill="#7B98CE"/>
</g>
<defs>
<linearGradient id="paint0_linear_0_121" x1="35.4796" y1="69.5779" x2="76.4369" y2="69.5779" gradientUnits="userSpaceOnUse">
<stop stop-color="#ECEEEC"/>
<stop offset="1" stop-color="#C2C7CB"/>
</linearGradient>
<linearGradient id="paint1_linear_0_121" x1="3669.4" y1="6096.81" x2="3700.14" y2="6096.81" gradientUnits="userSpaceOnUse">
<stop stop-color="#ECEEEC"/>
<stop offset="1" stop-color="#C2C7CB"/>
</linearGradient>
<clipPath id="clip0_0_121">
<rect width="112" height="87" fill="white"/>
</clipPath>
</defs>
</svg>
