<svg width="112" height="87" viewBox="0 0 112 87" fill="none" xmlns="http://www.w3.org/2000/svg">
<g clip-path="url(#clip0_0_163)">
<path d="M45.3506 61.1291L78.3555 79.9594C78.426 79.9933 78.4855 80.0463 78.5271 80.1122C78.5687 80.1781 78.5908 80.2543 78.5908 80.3321C78.5908 80.4099 78.5687 80.4861 78.5271 80.5521C78.4855 80.618 78.426 80.6709 78.3555 80.7049L67.7895 86.7791C67.5223 86.9291 67.2206 87.008 66.9136 87.008C66.6067 87.008 66.305 86.9291 66.0378 86.7791L33.7001 68.3078C33.6296 68.2739 33.5701 68.2209 33.5285 68.155C33.4869 68.0891 33.4648 68.0129 33.4648 67.9351C33.4648 67.8573 33.4869 67.7811 33.5285 67.7151C33.5701 67.6492 33.6296 67.5963 33.7001 67.5623L44.8223 61.1291C44.8942 61.0632 44.9885 61.0266 45.0864 61.0266C45.1843 61.0266 45.2786 61.0632 45.3506 61.1291Z" fill="#E7EBEC"/>
<path d="M76.5204 75.8455V79.9042L66.9831 85.3986V81.3123L76.5204 75.8455Z" fill="#969290"/>
<path d="M35.5631 63.3104L66.9831 81.3123V85.3986L35.5631 67.3967V63.3104Z" fill="#C5C7C7"/>
<path d="M45.1003 57.8436L76.5204 75.8455L66.9831 81.3123L35.5631 63.3104L45.1003 57.8436Z" fill="url(#paint0_linear_0_163)"/>
<path d="M74.3515 74.9895L45.7676 58.6166C45.5667 58.4946 45.3358 58.4301 45.1003 58.4301C44.8648 58.4301 44.6339 58.4946 44.433 58.6166L37.7041 62.4821C37.6285 62.5221 37.5653 62.5818 37.5212 62.6547C37.4771 62.7277 37.4538 62.8111 37.4538 62.8962C37.4538 62.9813 37.4771 63.0648 37.5212 63.1377C37.5653 63.2107 37.6285 63.2704 37.7041 63.3104L66.288 79.6833C66.4889 79.8053 66.7198 79.8699 66.9553 79.8699C67.1908 79.8699 67.4218 79.8053 67.6227 79.6833L74.3515 75.8454C74.4265 75.8015 74.4886 75.7389 74.5317 75.6639C74.5749 75.5888 74.5976 75.5039 74.5976 75.4175C74.5976 75.3311 74.5749 75.2462 74.5317 75.1711C74.4886 75.0961 74.4265 75.0335 74.3515 74.9895Z" fill="#E7EBEC"/>
<path d="M60.143 27.2513L60.7269 67.4243C60.7051 67.8407 60.5693 68.2433 60.3341 68.5887C60.0989 68.9342 59.7732 69.2094 59.3922 69.3846C58.3776 69.8877 57.2592 70.1496 56.1251 70.1496C54.9911 70.1496 53.8726 69.8877 52.858 69.3846C52.4797 69.2176 52.1535 68.9526 51.9138 68.6174C51.6741 68.2822 51.5296 67.8892 51.4955 67.4795L51.9682 27.2513H60.143Z" fill="#B3D7F3"/>
<path d="M51.9126 36.3351C51.9378 36.6976 52.0627 37.0462 52.2735 37.3431C52.4843 37.64 52.773 37.8739 53.1082 38.0194C54.01 38.4687 55.0049 38.7027 56.0139 38.7027C57.0228 38.7027 58.0178 38.4687 58.9196 38.0194C59.2513 37.869 59.5367 37.6338 59.7468 37.3379C59.9569 37.0419 60.084 36.6959 60.1152 36.3351V38.7925C60.0524 39.1254 59.9114 39.4389 59.7036 39.7076C59.4959 39.9762 59.2273 40.1924 58.9196 40.3386C58.007 40.8015 56.9969 41.0429 55.9722 41.0429C54.9475 41.0429 53.9374 40.8015 53.0248 40.3386C52.7257 40.2024 52.4621 39.9995 52.2548 39.7457C52.0474 39.4919 51.9018 39.194 51.8291 38.8753L51.9126 36.3351Z" fill="#5778BA"/>
<path d="M51.7736 43.9832C51.8232 44.3455 51.9638 44.6897 52.1825 44.984C52.4011 45.2783 52.6908 45.5133 53.0248 45.6674C53.9569 46.1313 54.9852 46.3729 56.0278 46.3729C57.0704 46.3729 58.0987 46.1313 59.0308 45.6674C59.3578 45.5184 59.6428 45.2919 59.861 45.0078C60.0791 44.7238 60.2237 44.3909 60.282 44.0384L60.6435 67.4243C60.6217 67.8407 60.4859 68.2433 60.2507 68.5887C60.0155 68.9342 59.6898 69.2093 59.3088 69.3846C58.2942 69.8877 57.1758 70.1496 56.0417 70.1496C54.9077 70.1496 53.7892 69.8877 52.7746 69.3846C52.3963 69.2176 52.0701 68.9526 51.8304 68.6174C51.5907 68.2822 51.4462 67.8892 51.4121 67.4795L51.7736 43.9832Z" fill="url(#paint1_linear_0_163)"/>
<path d="M0 25.6499L68.4846 64.9118L112 39.9797V39.2618L43.5154 0.386536L0 24.9321V25.6499Z" fill="#C5C7C7"/>
<path d="M68.4846 63.0066L109.219 39.6483L43.5154 1.98792L2.80832 25.3462L68.4846 63.0066Z" fill="white"/>
<path d="M43.5154 0L112 39.2618L68.4846 64.1111L-9.15527e-05 24.8493L43.5154 0ZM109.192 39.2618L43.5154 1.6014L2.78045 24.9597L68.4846 62.6201L109.192 39.2618Z" fill="#D5D4D4"/>
<path d="M94.3714 46.4957L105.883 39.8969L86.3078 28.6595L74.7964 35.2583L94.3714 46.4957Z" fill="#7B98CE"/>
<path d="M72.8223 34.1263L84.3337 27.5274L64.7587 16.29L53.2473 22.8889L72.8223 34.1263Z" fill="#7B98CE"/>
<path d="M51.2453 21.7569L62.7567 15.158L43.1817 3.92065L31.6703 10.5195L51.2453 21.7569Z" fill="#7B98CE"/>
<path d="M81.6365 53.7572L93.1479 47.1583L73.573 35.921L62.0616 42.5198L81.6365 53.7572Z" fill="#7B98CE"/>
<path d="M60.0596 41.3878L71.571 34.789L51.996 23.5516L40.4846 30.1504L60.0596 41.3878Z" fill="#7B98CE"/>
<path d="M38.5104 29.0184L50.0219 22.4196L30.4469 11.1822L18.9355 17.8087L38.5104 29.0184Z" fill="#7B98CE"/>
<path d="M68.9573 61.0463L80.4687 54.4474L60.8937 43.2377L49.3823 49.8365L68.9573 61.0463Z" fill="#7B98CE"/>
<path d="M47.4081 48.7045L58.9196 42.0781L39.3446 30.8683L27.8332 37.4671L47.4081 48.7045Z" fill="#7B98CE"/>
<path d="M25.8312 36.3351L37.3426 29.7363L17.7676 18.4989L6.2562 25.0978L25.8312 36.3351Z" fill="#7B98CE"/>
</g>
<defs>
<linearGradient id="paint0_linear_0_163" x1="76.5204" y1="69.5779" x2="35.5631" y2="69.5779" gradientUnits="userSpaceOnUse">
<stop stop-color="#ECEEEC"/>
<stop offset="1" stop-color="#C2C7CB"/>
</linearGradient>
<linearGradient id="paint1_linear_0_163" x1="-3557.4" y1="6096.81" x2="-3588.14" y2="6096.81" gradientUnits="userSpaceOnUse">
<stop stop-color="#ECEEEC"/>
<stop offset="1" stop-color="#C2C7CB"/>
</linearGradient>
<clipPath id="clip0_0_163">
<rect width="112" height="87" fill="white" transform="matrix(-1 0 0 1 112 0)"/>
</clipPath>
</defs>
</svg>
