<svg width="892" height="500" viewBox="0 0 892 500" fill="none" xmlns="http://www.w3.org/2000/svg">
<g clip-path="url(#clip0_0_289)">
<path d="M502.695 45.4647C521.321 45.0594 539.844 48.3272 557.206 55.0816C574.569 61.836 590.43 71.9447 603.885 84.8301C617.34 97.7156 628.125 113.125 635.624 130.18C643.122 147.234 647.188 165.598 647.588 184.224C647.588 187.772 647.588 191.265 647.396 194.73C656.935 195.483 666.22 198.179 674.68 202.651L693.052 183.261L652.978 144.425L665.961 90.1316L611.777 76.5995L595.935 23.0486L542.246 38.3685L501.705 -0.137451L462.869 39.9638L408.576 26.9543L395.649 78.7172C400.919 78.7615 406.144 79.6913 411.106 81.4677C436.336 58.8806 468.838 46.1044 502.695 45.4647Z" fill="#FDD200"/>
<path d="M463.722 465.235C467.25 465.88 470.848 466.046 474.421 465.73C481.369 465.243 487.964 462.487 493.192 457.885C498.42 453.283 501.991 447.091 503.355 440.261C503.98 434.986 504.182 429.67 503.96 424.363V410.611C503.96 407.861 503.96 407.861 501.375 407.861H484.542C481.242 407.861 481.655 407.641 481.655 410.611C481.655 418.862 481.655 427.114 481.655 435.365C481.685 437.896 480.791 440.352 479.141 442.271C477.49 444.19 475.196 445.441 472.688 445.789C470.17 446.288 467.555 445.833 465.354 444.511C463.153 443.189 461.522 441.096 460.779 438.638C460.213 436.861 459.953 435.001 460.009 433.137C460.009 425.381 460.009 417.597 460.009 409.841C460.009 408.218 459.706 407.586 457.891 407.613C451.858 407.723 445.817 407.723 439.766 407.613C438.115 407.613 437.648 408.081 437.648 409.704C437.648 417.24 437.648 424.748 437.648 432.257C437.304 440.259 439.951 448.103 445.074 454.26C445.651 454.948 445.816 455.388 445.074 456.021C442.833 457.629 440.945 459.679 439.526 462.044C438.107 464.409 437.187 467.039 436.823 469.773C436.033 473.189 436.17 476.755 437.219 480.101C438.268 483.447 440.192 486.452 442.791 488.806C446.88 492.286 452.143 494.077 457.506 493.812C463.007 493.812 468.507 493.812 474.173 493.812C475.761 493.659 477.355 494.041 478.701 494.898C480.046 495.756 481.067 497.038 481.6 498.542C481.696 498.892 481.917 499.194 482.221 499.391C482.525 499.589 482.891 499.668 483.249 499.615H502.668C503.823 499.615 504.18 499.202 504.153 498.102C503.685 484.13 494.967 473.871 480.884 472.138C475.109 471.451 469.277 471.891 463.474 471.753C462.965 471.796 462.454 471.717 461.982 471.521C461.51 471.325 461.092 471.019 460.763 470.628C460.434 470.237 460.205 469.773 460.092 469.275C459.98 468.777 459.989 468.259 460.119 467.765C460.161 467.35 460.293 466.949 460.504 466.589C460.715 466.228 461.001 465.918 461.343 465.678C461.684 465.438 462.074 465.275 462.484 465.198C462.895 465.122 463.317 465.134 463.722 465.235Z" fill="#7FBA27"/>
<path d="M428.103 454.536C428.103 449.035 428.268 443.534 428.103 438.033C427.888 430.753 425.19 423.766 420.458 418.23C417.134 414.341 412.951 411.277 408.239 409.282C403.528 407.287 398.417 406.414 393.311 406.733C388.792 406.692 384.313 407.574 380.146 409.324C375.98 411.074 372.214 413.655 369.079 416.91C357.83 428.544 357.61 448.595 365.834 461.054C368.607 465.777 372.718 469.571 377.649 471.956C382.579 474.34 388.107 475.208 393.531 474.449C397.551 473.941 401.356 472.343 404.533 469.828C404.863 469.58 405.165 469.113 405.633 469.305C406.1 469.498 405.881 470.048 405.936 470.461C405.977 470.826 405.977 471.195 405.936 471.561C405.688 473.156 406.403 473.514 407.916 473.486C414.022 473.486 420.127 473.486 426.233 473.486C428.049 473.486 428.351 472.881 428.351 471.286C428.076 465.757 428.103 460.146 428.103 454.536ZM393.943 452.473C392.396 452.531 390.854 452.269 389.413 451.703C387.972 451.137 386.663 450.28 385.569 449.186C384.474 448.091 383.617 446.782 383.052 445.341C382.486 443.9 382.224 442.358 382.282 440.811C382.221 439.263 382.478 437.718 383.036 436.273C383.593 434.827 384.44 433.51 385.524 432.403C386.608 431.296 387.906 430.422 389.34 429.834C390.773 429.246 392.312 428.957 393.861 428.984C395.426 428.919 396.987 429.177 398.448 429.743C399.908 430.309 401.236 431.17 402.348 432.272C403.461 433.374 404.334 434.694 404.914 436.149C405.493 437.604 405.766 439.163 405.715 440.729C405.79 442.293 405.537 443.856 404.971 445.316C404.406 446.777 403.541 448.103 402.432 449.209C401.324 450.316 399.995 451.177 398.533 451.739C397.071 452.301 395.508 452.551 393.943 452.473Z" fill="#7FBA27"/>
<path d="M369.905 383.849C371.005 381.842 370.977 381.814 368.695 381.814C361.709 381.814 354.722 381.814 347.764 381.814C347.046 381.726 346.32 381.878 345.698 382.246C345.076 382.615 344.593 383.178 344.326 383.849C339.045 393.916 333.654 403.955 328.263 414.104C327.988 414.599 327.878 415.479 327.245 415.507C326.613 415.534 326.366 414.572 326.063 414.022C320.562 403.79 315.061 393.586 309.726 383.354C309.531 382.878 309.187 382.479 308.745 382.216C308.304 381.953 307.788 381.841 307.277 381.897C304.527 381.897 301.969 381.897 299.301 381.897H285.054C283.734 381.897 283.486 382.309 284.174 383.382C284.174 383.574 284.394 383.822 284.531 384.042C294.708 402.69 304.894 421.338 315.089 439.986C315.76 441.155 316.093 442.488 316.051 443.836C316.051 448.347 316.051 452.83 316.051 457.341C316.051 461.852 316.051 467.077 316.051 471.946C316.051 473.238 316.464 473.623 317.757 473.623C324 473.623 330.216 473.623 336.46 473.623C338 473.623 338.44 473.183 338.412 471.671C338.412 463.887 338.605 456.131 338.412 448.374C338.276 443.898 339.431 439.477 341.74 435.64C351.174 418.395 360.498 401.095 369.905 383.849Z" fill="#7FBA27"/>
<path d="M746.191 447.329C746.435 442.035 746.084 436.73 745.145 431.514C743.376 423.397 738.475 416.307 731.507 411.785C724.538 407.263 716.066 405.675 707.932 407.366C701.234 408.773 695.168 412.303 690.634 417.431C686.101 422.559 683.341 429.012 682.766 435.832C681.776 447.934 682.573 460.091 682.353 472.221C682.353 473.541 683.096 473.513 684.031 473.513C690.329 473.513 696.628 473.513 702.927 473.513C704.467 473.513 704.879 473.101 704.879 471.56C704.879 461.686 704.879 451.84 704.879 441.966C704.834 440.182 705.009 438.399 705.402 436.658C705.789 434.642 706.823 432.808 708.347 431.433C709.871 430.058 711.801 429.218 713.846 429.039C715.738 428.908 717.622 429.387 719.222 430.407C720.821 431.427 722.051 432.934 722.729 434.705C723.649 436.935 724.089 439.334 724.022 441.746C724.022 451.739 724.022 461.723 724.022 471.698C724.022 472.991 724.242 473.541 725.728 473.513C732.017 473.513 738.306 473.513 744.595 473.513C746.08 473.513 746.328 472.991 746.301 471.698C746.301 466.032 746.301 460.366 746.301 454.673C746.191 452.335 746.218 449.777 746.191 447.329Z" fill="#7FBA27"/>
<path d="M628.858 437.098C624.843 435.372 620.657 434.072 616.371 433.22C613.072 432.768 609.845 431.889 606.772 430.607C606.13 430.36 605.596 429.892 605.268 429.287C604.941 428.682 604.84 427.979 604.984 427.306C605.231 425.739 606.414 425.271 607.734 425.051C609.439 424.683 611.218 424.911 612.775 425.697C614.332 426.483 615.572 427.779 616.288 429.369C616.673 430.084 617.003 430.579 617.911 430.552H637.714C638.732 430.552 639.034 430.139 638.814 429.177C638.266 425.728 637.04 422.421 635.209 419.447C633.377 416.473 630.976 413.891 628.143 411.849C621.478 407.585 613.503 405.858 605.671 406.981C600.588 407.23 595.667 408.845 591.424 411.656C588.306 413.721 585.831 416.621 584.284 420.026C582.738 423.431 582.181 427.203 582.678 430.909C583.421 438.721 588.179 443.066 595.165 445.569C600.245 447.1 605.405 448.349 610.622 449.31C612.256 449.627 613.815 450.252 615.215 451.153C615.591 451.388 615.905 451.711 616.13 452.093C616.354 452.476 616.482 452.907 616.504 453.35C616.525 453.793 616.44 454.235 616.254 454.638C616.068 455.041 615.787 455.393 615.435 455.663C612.823 457.534 604.819 456.956 603.279 452.253C602.866 451.015 602.234 450.823 601.106 450.85H591.864C588.701 450.85 585.566 450.85 582.43 450.85C581.055 450.85 580.56 451.098 580.807 452.583C581.412 457.062 583.325 461.262 586.308 464.657C591.69 470.482 599.128 473.984 607.047 474.421C615.655 475.274 623.934 474.421 631.223 469.113C642.28 461.329 641.427 442.874 628.858 437.098Z" fill="#7FBA27"/>
<path d="M569.146 381.787C563.095 381.787 557.044 381.787 550.993 381.787C549.618 381.787 549.04 382.089 549.04 383.629C549.04 412.967 549.04 442.36 549.04 471.808C549.04 473.238 549.535 473.541 550.883 473.541C556.906 473.541 562.958 473.541 569.009 473.541C571.429 473.541 571.429 473.541 571.429 471.12V427.856C571.429 413.306 571.429 398.784 571.429 384.234C571.484 382.474 571.126 381.732 569.146 381.787Z" fill="#7FBA27"/>
<path d="M534.05 407.998C527.944 407.998 521.811 407.998 515.705 407.998C514.082 407.998 513.614 408.494 513.642 410.116C513.642 420.265 513.642 430.442 513.642 440.618C513.642 450.795 513.642 461.302 513.642 471.643C513.642 473.101 514.027 473.569 515.484 473.541C521.682 473.541 527.852 473.541 533.995 473.541C535.618 473.541 536.085 473.156 536.085 471.506C536.085 451.043 536.085 430.589 536.085 410.144C536.085 408.576 535.728 407.971 534.05 407.998Z" fill="#7FBA27"/>
<path d="M671.159 440.976C671.159 430.634 671.159 420.265 671.159 409.924C671.159 408.466 670.747 407.998 669.261 408.026C663.018 408.026 656.802 408.026 650.558 408.026C649.183 408.026 648.771 408.493 648.771 409.841C648.771 430.488 648.771 451.134 648.771 471.781C648.771 473.183 649.211 473.541 650.586 473.541C656.747 473.541 662.935 473.541 669.096 473.541C670.746 473.541 671.159 473.101 671.159 471.478C671.159 461.329 671.159 451.152 671.159 440.976Z" fill="#7FBA27"/>
<path d="M109.192 323.313C109.192 313.109 108.999 302.932 109.192 292.755C109.192 289.427 108.257 288.657 105.039 288.685C84.3279 288.685 63.5901 288.685 42.8794 288.685C39.7439 288.685 38.4511 288.107 38.6437 284.669C38.9462 279.53 38.9462 274.378 38.6437 269.239C38.4786 265.884 39.6339 265.086 42.8519 265.113C62.71 265.113 82.5678 265.113 102.453 265.113C105.616 265.113 106.414 264.151 106.359 261.098C106.166 251.251 106.139 241.377 106.359 231.503C106.359 228.203 105.479 227.378 102.233 227.378C82.2651 227.543 62.27 227.378 42.3019 227.515C39.5515 227.515 38.5612 226.663 38.6712 223.857C38.8637 218.604 38.8912 213.323 38.6712 208.097C38.6712 204.989 39.4962 204.054 42.6316 204.082C63.5899 204.082 84.5209 204.082 105.452 204.082C108.202 204.082 109.219 203.476 109.164 200.534C108.999 190.357 108.999 180.171 109.164 169.976C109.164 167.088 108.23 166.401 105.452 166.401C71.548 166.401 37.6258 166.401 3.6855 166.401C0.660035 166.401 -0.0550091 167.336 -0.0275049 170.224C-0.0275049 195.638 -0.0275049 221.024 -0.0275049 246.438C-0.0275049 271.852 -0.0275049 297.266 -0.0275049 322.68C-0.0275049 324.963 0.192489 326.091 3.02543 326.063C37.3874 325.953 71.7497 325.953 106.112 326.063C108.697 326.448 109.219 325.595 109.192 323.313Z" fill="#7FBA27"/>
<path d="M325.568 326.971C334.73 325.148 343.266 320.993 350.354 314.908C357.441 308.823 362.839 301.013 366.027 292.233C367.457 288.685 367.32 288.575 363.276 288.575C351.78 288.575 340.31 288.575 328.814 288.575C326.817 288.503 324.863 289.158 323.313 290.417C313.301 298.009 298.064 294.763 292.838 284.036C291.353 280.983 291.573 280.598 294.956 280.598H330.381C342.098 280.598 353.815 280.598 365.504 280.598C368.557 280.598 369.548 279.443 369.603 276.748C369.603 274.602 369.822 272.457 369.85 270.312C369.85 251.884 364.046 236.014 349.854 223.775C340.87 216.136 329.706 211.526 317.95 210.6C304.74 208.838 291.316 211.436 279.718 217.999C259.97 229.688 251.224 247.731 251.444 270.257C251.664 291.793 260.273 309.203 279.141 320.48C293.151 328.691 309.843 331.024 325.568 326.971ZM292.563 256.285C294.025 252.684 296.552 249.617 299.806 247.493C303.061 245.369 306.886 244.291 310.771 244.403C314.604 244.26 318.389 245.29 321.623 247.354C324.856 249.417 327.384 252.418 328.869 255.954C329.941 258.512 329.336 259.035 326.723 258.98C321.36 258.815 315.996 258.98 310.633 258.98C305.27 258.98 299.907 258.98 294.543 258.98C292.316 258.98 291.6 258.705 292.453 256.285H292.563Z" fill="#7FBA27"/>
<path d="M871.94 224.05C862.982 216.391 851.837 211.752 840.09 210.793C825.026 208.835 809.768 212.476 797.211 221.024C771 239.232 767.506 276.308 780.901 299.796C793.58 321.965 813.907 330.299 838.495 328.401C862.232 326.531 878.982 314.401 888.003 292.15C889.351 288.822 889.241 288.712 885.775 288.712C873.866 288.712 861.956 288.712 850.02 288.712C848.316 288.714 846.672 289.34 845.399 290.473C835.305 298.174 819.82 294.901 814.704 284.009C813.356 281.259 813.576 280.736 816.767 280.736H852.192C864.129 280.736 876.039 280.736 887.948 280.736C890.258 280.736 891.331 279.993 891.414 277.711C891.496 275.428 891.771 273.007 891.771 270.642C892.046 252.104 886.133 236.207 871.94 224.05ZM849.167 259.09C843.666 259.09 838 259.09 832.416 259.09C826.833 259.09 821.415 259.09 815.914 259.09C813.934 259.09 813.494 258.595 814.236 256.67C815.629 253.036 818.109 249.921 821.339 247.75C824.568 245.579 828.389 244.458 832.279 244.54C836.222 244.362 840.123 245.415 843.44 247.554C846.757 249.693 849.326 252.812 850.79 256.477C851.67 258.32 851.477 259.008 849.194 258.953L849.167 259.09Z" fill="#7FBA27"/>
<path d="M697.673 323.065C697.673 313.301 697.673 303.537 697.673 293.773C697.673 286.594 697.673 279.416 697.673 272.237C697.801 263.968 696.604 255.731 694.125 247.841C689.887 234.905 680.966 224.02 669.114 217.323C657.263 210.627 643.336 208.601 630.068 211.645C618.574 214.253 608.211 220.461 600.489 229.365C592.767 238.269 588.088 249.405 587.133 261.153C585.483 282.139 586.803 303.179 586.446 324.193C586.446 326.503 587.739 326.42 589.196 326.42C600.198 326.42 611.2 326.42 622.201 326.42C624.952 326.42 625.667 325.76 625.639 323.037C625.502 305.792 625.639 288.52 625.639 271.247C625.571 268.137 625.904 265.031 626.63 262.006C627.317 258.785 628.951 255.843 631.324 253.559C633.696 251.275 636.697 249.753 639.941 249.189C643.037 248.662 646.22 249.12 649.042 250.496C651.864 251.873 654.184 254.099 655.675 256.862C658.093 261.198 659.255 266.122 659.03 271.082C659.03 288.437 659.03 305.82 659.03 323.203C659.03 325.705 659.745 326.448 662.275 326.42C673.029 326.283 683.756 326.255 694.51 326.42C697.123 326.503 697.7 325.54 697.673 323.065Z" fill="#7FBA27"/>
<path d="M129.325 326.448C140.189 326.31 151.026 326.283 161.863 326.448C164.613 326.448 165.246 325.568 165.218 322.982C165.218 305.82 165.218 288.657 165.218 271.522C165.157 268.406 165.471 265.294 166.153 262.253C166.864 258.699 168.725 255.477 171.449 253.086C174.173 250.695 177.61 249.267 181.226 249.024C187.937 248.501 194.015 252.819 196.848 260.025C198.102 263.554 198.689 267.284 198.581 271.027C198.581 288.272 198.581 305.545 198.581 322.817C198.581 325.375 199.131 326.338 201.909 326.283C212.663 326.118 223.39 326.145 234.144 326.283C236.62 326.283 237.445 325.678 237.39 323.093C237.252 313.219 237.39 303.344 237.39 293.498C237.39 285.769 237.39 278.041 237.39 270.339C237.466 262.499 236.238 254.701 233.759 247.263C230.843 238.675 225.842 230.945 219.204 224.765C212.566 218.585 204.499 214.148 195.724 211.853C186.95 209.558 177.743 209.476 168.929 211.614C160.115 213.752 151.97 218.044 145.223 224.105C131.883 236.289 126.437 251.939 126.272 269.624C126.107 287.309 126.272 305.215 126.272 323.01C126.024 325.815 126.767 326.475 129.325 326.448Z" fill="#7FBA27"/>
<path d="M502.475 212.443C491.859 212.443 481.215 212.608 470.571 212.443C467.298 212.443 466.473 213.35 466.473 216.596C466.583 252.627 466.583 288.657 466.473 324.688C466.473 331.701 463.722 335.002 457.011 336.872C455.222 337.382 453.37 337.641 451.51 337.642C449.612 337.642 448.76 338.412 448.897 340.393C448.897 350.899 448.897 361.406 448.897 371.913C448.897 373.728 449.53 374.443 451.345 374.278C454.646 374.003 458.001 373.921 461.274 373.48C472.153 372.489 482.479 368.232 490.896 361.269C501.705 351.835 505.474 339.265 505.529 325.513C505.529 307.938 505.529 290.335 505.529 272.76C505.529 253.782 505.529 234.804 505.529 215.826C505.776 213.048 505.006 212.415 502.475 212.443Z" fill="#7FBA27"/>
<path d="M752.462 166.786C742.065 166.923 731.641 166.978 721.244 166.786C718.109 166.786 717.256 167.721 717.284 170.774C717.284 196.078 717.284 221.354 717.284 246.658C717.284 271.962 717.284 297.651 717.284 323.175C717.284 325.678 717.944 326.475 720.529 326.448C731.256 326.31 741.982 326.283 752.736 326.448C755.487 326.448 756.367 325.815 756.367 322.9C756.367 272.09 756.367 221.299 756.367 170.526C756.422 167.418 755.295 166.758 752.462 166.786Z" fill="#7FBA27"/>
<path d="M451.125 246.356C451.125 235.097 451.125 223.839 451.125 212.58C451.125 210.765 450.493 210.16 448.677 210.242C443.534 210.412 438.412 210.982 433.357 211.948C405.853 217.256 385.17 236.481 383.85 265.911C383.437 275.097 383.85 284.339 383.85 293.415H383.602C383.602 303.262 383.602 313.136 383.602 322.982C383.602 325.458 384.207 326.338 386.82 326.31C397.822 326.173 408.824 326.145 419.66 326.31C422.411 326.31 422.85 325.485 422.823 323.037C422.823 305.572 422.823 288.107 422.823 270.614C422.619 266.457 423.783 262.347 426.138 258.914C428.493 255.481 431.908 252.915 435.86 251.609C439.961 249.96 444.315 249.03 448.732 248.859C450.547 249.051 451.125 248.281 451.125 246.356Z" fill="#7FBA27"/>
<path d="M566.148 322.817C566.148 305.022 566.148 287.254 566.148 269.459C566.148 251.664 566.148 233.704 566.148 215.771C566.148 213.323 565.515 212.388 562.902 212.415C552.065 212.553 541.229 212.415 530.392 212.415C528.055 212.415 527.229 213.02 527.229 215.496C527.229 251.508 527.229 287.502 527.229 323.478C527.229 325.733 527.862 326.421 530.145 326.393C540.981 326.393 551.818 326.228 562.655 326.393C565.57 326.503 566.148 325.513 566.148 322.817Z" fill="#7FBA27"/>
<path d="M526.597 184.856C526.515 187.493 526.984 190.119 527.976 192.564C528.967 195.009 530.459 197.22 532.354 199.056C534.249 200.891 536.507 202.311 538.982 203.224C541.458 204.137 544.097 204.523 546.73 204.357C558.667 204.357 566.615 196.518 566.643 184.773C566.819 182.085 566.416 179.391 565.464 176.871C564.511 174.352 563.03 172.065 561.12 170.166C559.21 168.266 556.916 166.798 554.391 165.859C551.866 164.92 549.169 164.533 546.482 164.723C543.819 164.607 541.161 165.051 538.679 166.025C536.198 167 533.948 168.483 532.075 170.38C530.201 172.276 528.746 174.544 527.803 177.038C526.859 179.531 526.448 182.194 526.597 184.856Z" fill="#7FBA27"/>
<path d="M485.863 164.723C483.199 164.587 480.537 165.014 478.049 165.977C475.562 166.941 473.305 168.418 471.428 170.313C469.551 172.209 468.096 174.479 467.156 176.975C466.217 179.472 465.815 182.139 465.977 184.801C465.977 196.546 474.091 204.357 486 204.357C497.91 204.357 505.913 196.546 505.968 184.829C506.147 182.142 505.749 179.449 504.802 176.929C503.855 174.408 502.379 172.12 500.476 170.216C498.572 168.312 496.284 166.837 493.763 165.89C491.243 164.943 488.549 164.545 485.863 164.723Z" fill="#7FBA27"/>
<path d="M239.617 411.354C235.864 411.504 232.324 413.139 229.776 415.898C227.228 418.657 225.881 422.316 226.03 426.069C226.187 429.819 227.824 433.354 230.582 435.901C233.339 438.447 236.994 439.797 240.745 439.656C244.495 439.498 248.03 437.862 250.577 435.104C253.123 432.346 254.473 428.692 254.332 424.941C254.174 421.191 252.538 417.655 249.78 415.109C247.022 412.563 243.368 411.212 239.617 411.354Z" fill="#7FBA27"/>
<path d="M190.384 385.28C185.902 387.8 182.605 391.998 181.217 396.95C179.83 401.901 180.466 407.201 182.986 411.684C184.218 413.919 185.883 415.887 187.882 417.473C189.882 419.059 192.177 420.232 194.634 420.923C197.091 421.614 199.661 421.809 202.194 421.498C204.727 421.187 207.174 420.375 209.39 419.11C213.872 416.589 217.17 412.393 218.562 407.443C219.954 402.493 219.327 397.194 216.816 392.706C214.295 388.217 210.094 384.913 205.138 383.521C200.181 382.128 194.875 382.761 190.384 385.28Z" fill="#7FBA27"/>
<path d="M168.574 431.79C161.552 432.069 154.928 435.121 150.153 440.277C145.379 445.433 142.844 452.272 143.105 459.294C143.384 466.315 146.436 472.939 151.592 477.714C156.748 482.488 163.587 485.023 170.609 484.763C177.63 484.476 184.253 481.423 189.03 476.269C193.807 471.116 196.351 464.281 196.106 457.258C195.812 450.237 192.752 443.617 187.593 438.845C182.434 434.073 175.597 431.536 168.574 431.79Z" fill="#7FBA27"/>
<path d="M76.2141 382.859C67.8129 387.588 61.6321 395.458 59.0279 404.74C56.4237 414.022 57.6089 423.958 62.3243 432.367C64.6608 436.532 67.7952 440.196 71.5479 443.149C75.3005 446.103 79.5981 448.288 84.1954 449.58C88.7927 450.873 93.5998 451.247 98.3417 450.681C103.084 450.116 107.668 448.622 111.832 446.284C120.238 441.56 126.425 433.693 129.035 424.41C131.644 415.127 130.462 405.189 125.749 396.777C121.025 388.363 113.153 382.171 103.863 379.561C94.5741 376.951 84.6287 378.138 76.2141 382.859Z" fill="#7FBA27"/>
<path d="M149.568 80.0649C145.611 80.0321 141.789 78.6219 138.759 76.0768L138.264 75.6917V114.913C138.264 129.518 138.264 144.122 138.264 158.727C138.264 160.432 138.732 160.872 140.409 160.845C146.515 160.845 152.649 160.845 158.754 160.845C160.267 160.845 160.598 160.35 160.598 158.947C160.598 131.278 160.598 103.599 160.598 75.9117C157.538 78.5735 153.624 80.0474 149.568 80.0649Z" fill="#7FBA27"/>
<path d="M139.172 62.1046C142.115 64.3325 145.333 66.1477 148.193 68.4581C149.513 69.5033 149.815 69.4758 151.136 68.4581C153.116 66.8354 155.179 65.3227 157.296 63.8925C159.73 62.3151 161.933 60.4083 163.843 58.2266C166.443 55.445 167.965 51.8264 168.134 48.0225C168.097 46.3916 167.72 44.7864 167.029 43.3089C166.338 41.8315 165.346 40.5142 164.117 39.4411C160.707 36.4982 152.319 36.6906 150.118 41.0913C149.651 41.999 149.073 41.8614 148.523 41.0913C148.119 40.4079 147.575 39.8174 146.927 39.3585C145.447 38.3422 143.726 37.7312 141.935 37.5865C140.145 37.4417 138.348 37.7682 136.723 38.5334C134.347 39.7217 132.481 41.7299 131.47 44.1869C130.458 46.6439 130.371 49.3838 131.223 51.9005C132.765 56.0351 135.54 59.5968 139.172 62.1046Z" fill="#7FBA27"/>
<path d="M251.279 160.79C257.44 160.79 263.629 160.79 269.79 160.79C271.302 160.79 271.797 160.405 271.797 158.837C271.797 139.969 271.797 121.12 271.797 102.288C268.732 104.916 264.833 106.368 260.796 106.387C256.831 106.367 253.002 104.945 249.987 102.371L249.464 102.013C249.464 110.65 249.464 119.295 249.464 127.95C249.464 138.237 249.464 148.523 249.464 158.81C249.436 160.378 249.794 160.79 251.279 160.79Z" fill="#7FBA27"/>
<path d="M190.962 181.418C197.068 181.418 203.174 181.418 209.28 181.418C210.897 181.266 212.517 181.66 213.883 182.538C215.249 183.415 216.282 184.726 216.816 186.259C216.907 186.582 217.115 186.861 217.4 187.039C217.685 187.217 218.026 187.282 218.357 187.221H237.774C238.874 187.221 239.287 186.891 239.287 185.736C239.393 179.211 237.014 172.889 232.632 168.052C228.25 163.216 222.193 160.226 215.688 159.69C209.912 159.112 204.109 159.525 198.306 159.36C196.161 159.36 195.06 157.764 195.28 155.399C195.5 153.034 196.793 151.989 198.884 152.401C202.465 153.063 206.118 153.248 209.748 152.951C217.394 152.453 224.597 149.188 230.013 143.768C235.428 138.347 238.686 131.141 239.177 123.494C239.425 119.313 239.177 115.105 239.177 110.925H239.315C239.315 106.441 239.315 101.931 239.315 97.4475C239.315 95.7972 238.93 95.1921 237.169 95.2196C231.256 95.2196 225.315 95.2196 219.402 95.2196C216.954 95.2196 216.954 95.2198 216.954 97.6127C216.954 106.056 216.954 114.5 216.954 122.944C216.963 125.443 216.073 127.862 214.447 129.76C212.822 131.659 210.568 132.91 208.097 133.286C205.558 133.82 202.911 133.378 200.683 132.048C198.455 130.717 196.811 128.596 196.078 126.107C195.522 124.329 195.271 122.469 195.335 120.606C195.335 112.712 195.335 104.819 195.335 96.9524C195.335 95.5772 194.923 95.1372 193.52 95.1372C187.359 95.1372 181.189 95.1372 175.01 95.1372C173.36 95.1372 172.947 95.6323 172.975 97.2276C172.975 105.066 172.975 112.877 172.975 120.716C172.948 122.686 173.086 124.655 173.387 126.602C174.275 132.101 176.642 137.254 180.236 141.509C180.786 142.142 181.336 142.665 180.236 143.407C177.99 145.011 176.099 147.059 174.68 149.425C173.26 151.791 172.342 154.424 171.984 157.159C171.181 160.619 171.321 164.23 172.39 167.617C173.459 171.004 175.418 174.041 178.063 176.412C181.615 179.586 186.198 181.365 190.962 181.418Z" fill="#7FBA27"/>
<path d="M251.416 87.6285C254.166 89.6364 256.917 91.259 259.503 93.3218C260.686 94.2569 260.961 94.2294 262.253 93.3218C264.014 91.8916 265.884 90.5714 267.754 89.2512C269.929 87.8285 271.899 86.1168 273.612 84.163C275.941 81.674 277.307 78.4364 277.463 75.0315C277.429 73.5697 277.087 72.1314 276.462 70.8095C275.837 69.4877 274.941 68.3118 273.832 67.3579C270.779 64.6075 263.271 64.8549 261.318 68.8156C260.905 69.6407 260.383 69.5307 259.888 68.8156C259.523 68.2082 259.036 67.6836 258.457 67.2753C257.132 66.3659 255.592 65.8189 253.991 65.6886C252.389 65.5583 250.78 65.8493 249.326 66.5327C247.195 67.5917 245.521 69.3886 244.615 71.5893C243.71 73.79 243.634 76.2449 244.403 78.4971C245.755 82.1851 248.201 85.3714 251.416 87.6285Z" fill="#7FBA27"/>
<path d="M323.093 160.79C329.29 160.79 335.46 160.79 341.603 160.79C343.143 160.79 343.611 160.377 343.611 158.837C343.611 140.831 343.611 122.825 343.611 104.819C340.214 106.728 336.476 107.952 332.609 108.422C328.652 107.615 324.835 106.234 321.278 104.323C321.278 112.171 321.278 120.01 321.278 127.84C321.278 138.181 321.278 148.55 321.278 158.892C321.25 160.377 321.607 160.79 323.093 160.79Z" fill="#7FBA27"/>
<path d="M357.28 114.885C357.28 129.49 357.28 144.095 357.28 158.7C357.28 160.405 357.748 160.872 359.453 160.845C365.559 160.845 371.693 160.845 377.799 160.845C379.257 160.845 379.724 160.432 379.696 158.975C379.696 154.602 379.696 150.228 379.696 145.855C379.696 144.342 379.971 143.957 381.401 144.727C384.292 146.274 386.911 148.281 389.158 150.668C391.623 153.424 393.858 156.377 395.841 159.497C396.309 160.24 396.749 160.845 397.822 160.817C405.303 160.817 412.757 160.817 420.238 160.817C421.365 160.817 421.476 160.432 421.035 159.525C417.653 152.028 412.766 145.307 406.678 139.777C405.496 138.759 405.551 138.319 406.678 137.439C409.909 135.32 412.661 132.549 414.759 129.305C416.857 126.061 418.255 122.414 418.863 118.598C419.874 113.932 419.142 109.056 416.806 104.891C414.471 100.727 410.692 97.5606 406.183 95.9899C402.202 94.4787 397.956 93.7898 393.702 93.9647C389.447 94.1396 385.272 95.1747 381.429 97.0075C379.476 97.8877 379.504 97.9152 379.504 95.8249V71.5936C379.504 69.1182 379.504 69.1182 376.919 69.1182C371.115 69.1182 365.311 69.1182 359.508 69.1182C357.665 69.1182 357.116 69.5859 357.116 71.4837C357.308 85.9234 357.28 100.281 357.28 114.885ZM380.246 123.494C381.336 121.032 383.038 118.89 385.19 117.272C387.342 115.654 389.873 114.615 392.541 114.253C393.217 114.17 393.9 114.17 394.576 114.253C396.914 114.583 397.657 115.738 396.969 117.993C396.598 118.974 396.024 119.866 395.284 120.61C394.545 121.355 393.657 121.934 392.678 122.311C389.121 123.862 385.306 124.739 381.429 124.897C380.274 125.034 379.614 125.034 380.246 123.494Z" fill="#7FBA27"/>
<path d="M287.447 160.79C293.471 160.79 299.522 160.79 305.573 160.79C307.388 160.79 307.828 160.267 307.828 158.507C307.828 143.957 307.828 129.435 307.828 114.885C307.828 100.336 307.828 85.6758 307.828 71.0986C307.828 69.6409 307.525 69.0083 305.875 69.0358C299.714 69.0358 293.553 69.0358 287.392 69.0358C285.769 69.0358 285.439 69.6408 285.439 71.0711C285.439 100.409 285.439 129.673 285.439 158.865C285.412 160.542 286.099 160.79 287.447 160.79Z" fill="#7FBA27"/>
<path d="M323.34 87.6285C325.953 89.6364 328.841 91.259 331.426 93.3218C332.582 94.2569 332.884 94.2294 334.177 93.3218C335.937 91.8916 337.78 90.5714 339.678 89.2512C341.858 87.8358 343.83 86.1233 345.536 84.163C347.873 81.6767 349.248 78.4395 349.414 75.0315C349.368 73.5718 349.022 72.1373 348.397 70.8171C347.772 69.4969 346.883 68.3195 345.784 67.3579C342.731 64.6075 335.222 64.8549 333.241 68.8156C332.829 69.6407 332.334 69.5307 331.839 68.8156C331.465 68.215 330.98 67.692 330.409 67.2753C329.079 66.3661 327.534 65.8193 325.928 65.6891C324.321 65.5589 322.709 65.8496 321.25 66.5327C319.12 67.5918 317.448 69.3904 316.547 71.5922C315.646 73.794 315.577 76.2485 316.354 78.4971C317.684 82.1892 320.125 85.379 323.34 87.6285Z" fill="#7FBA27"/>
</g>
<defs>
<clipPath id="clip0_0_289">
<rect width="891.881" height="500" fill="white"/>
</clipPath>
</defs>
</svg>
