<svg width="146" height="245" viewBox="0 0 146 245" fill="none" xmlns="http://www.w3.org/2000/svg">
<path d="M27.9824 3.31335e-05H95.5793C96.4275 -0.00328549 97.2561 0.255796 97.9526 0.742088C98.6491 1.22838 99.1798 1.9183 99.4724 2.71811L145.735 127.968C145.971 128.598 146.051 129.276 145.968 129.944C145.885 130.613 145.642 131.25 145.258 131.803C144.875 132.355 144.364 132.806 143.769 133.116C143.173 133.425 142.512 133.585 141.842 133.58H78.8504C78.1738 133.568 77.5046 133.724 76.9018 134.033C76.299 134.342 75.7811 134.795 75.3936 135.353C75.006 135.91 74.7607 136.555 74.6793 137.23C74.5978 137.905 74.6827 138.589 74.9264 139.224L113.361 239.191C113.775 240.142 113.818 241.215 113.483 242.197C113.147 243.179 112.458 243.999 111.55 244.495C110.643 244.991 109.583 245.128 108.58 244.878C107.577 244.627 106.704 244.009 106.133 243.143L0.803161 97.7263C0.349129 97.1062 0.0757706 96.3714 0.0136138 95.6041C-0.0485431 94.8368 0.102969 94.0673 0.451215 93.3816C0.799461 92.6959 1.33071 92.121 1.98556 91.7212C2.6404 91.3214 3.39301 91.1125 4.15926 91.1179H51.0104C51.6857 91.1213 52.3515 90.9582 52.9495 90.6431C53.5475 90.328 54.0595 89.8704 54.4407 89.3104C54.8218 88.7503 55.0605 88.1049 55.1358 87.4307C55.2111 86.7565 55.1207 86.0741 54.8725 85.4431L24.1203 5.66442C23.8743 5.034 23.7856 4.35268 23.8619 3.67989C23.9382 3.0071 24.1772 2.36329 24.5581 1.80464C24.939 1.246 25.4502 0.789475 26.0471 0.474917C26.644 0.160359 27.3084 -0.00267246 27.9824 3.31335e-05Z" fill="#FCD100" fill-opacity="0.5"/>
</svg>
