<svg width="15" height="20" viewBox="0 0 15 20" fill="none" xmlns="http://www.w3.org/2000/svg">
<path d="M13.9092 10.4531L1.33513 19.0205C1.24581 19.0813 1.14203 19.1161 1.03486 19.1214C0.927686 19.1266 0.821128 19.102 0.726536 19.0503C0.631944 18.9985 0.55286 18.9215 0.497707 18.8274C0.442554 18.7334 0.413397 18.6258 0.413342 18.5161V1.38132C0.413397 1.27166 0.442554 1.16407 0.497707 1.07001C0.55286 0.975943 0.631944 0.898931 0.726536 0.847171C0.821128 0.795412 0.927686 0.770843 1.03486 0.776083C1.14203 0.781323 1.24581 0.816175 1.33513 0.876927L13.9092 9.44433C13.9905 9.49969 14.0571 9.5747 14.1032 9.66269C14.1492 9.75068 14.1733 9.84893 14.1733 9.94872C14.1733 10.0485 14.1492 10.1468 14.1032 10.2348C14.0571 10.3227 13.9905 10.3978 13.9092 10.4531Z" fill="white"/>
</svg>
