<svg width="156" height="247" viewBox="0 0 156 247" fill="none" xmlns="http://www.w3.org/2000/svg">
<path d="M103.388 240.091C97.7033 242.949 91.7569 245.259 85.6299 246.99V202.111L123.39 164.538C124.205 163.727 124.663 162.627 124.663 161.48C124.663 160.333 124.205 159.233 123.39 158.422C122.575 157.611 121.47 157.155 120.317 157.155C119.164 157.155 118.059 157.611 117.244 158.422L85.6719 189.847V137.36L123.432 99.7873C124.242 98.9759 124.697 97.8784 124.697 96.7345C124.697 95.5907 124.242 94.4932 123.432 93.6817C122.616 92.8723 121.511 92.4178 120.359 92.4178C119.207 92.4178 118.102 92.8723 117.286 93.6817L85.7139 125.107V63.5295C85.7083 61.5133 84.901 59.5812 83.4682 58.1555C82.0354 56.7299 80.0937 55.9265 78.0674 55.921C76.0393 55.9237 74.0949 56.7259 72.6599 58.1519C71.2248 59.5779 70.416 61.5115 70.4105 63.5295V125.107L38.8386 93.6922C38.0245 92.8834 36.921 92.4291 35.7706 92.4291C34.6202 92.4291 33.5167 92.8834 32.7026 93.6922C31.8923 94.5036 31.4376 95.6011 31.4376 96.745C31.4376 97.8889 31.8923 98.9863 32.7026 99.7978L70.4629 137.371V189.889L38.891 158.485C38.076 157.675 36.971 157.221 35.8193 157.222C34.6676 157.223 33.5635 157.679 32.7498 158.49C31.9361 159.301 31.4795 160.4 31.4805 161.546C31.4815 162.692 31.9399 163.791 32.755 164.601L70.5153 202.121V247C64.3899 245.265 58.444 242.955 52.7575 240.101C-39.556 193.594 2.46285 41.8729 77.9835 0C153.504 41.8729 195.512 193.594 103.388 240.091Z" fill="#80BC00" fill-opacity="0.5"/>
</svg>
