<svg width="194" height="110" viewBox="0 0 194 110" fill="none" xmlns="http://www.w3.org/2000/svg">
<g clip-path="url(#clip0_0_255)">
<path d="M109.345 10.0022C113.397 9.91305 117.426 10.632 121.202 12.1179C124.979 13.6039 128.429 15.8278 131.356 18.6626C134.282 21.4974 136.628 24.8876 138.26 28.6395C139.891 32.3914 140.775 36.4315 140.862 40.5292C140.862 41.3097 140.862 42.0782 140.82 42.8406C142.895 43.0063 144.915 43.5993 146.755 44.5833L150.751 40.3477L142.034 31.8037L144.858 19.8592L133.072 16.8821L129.626 5.10094L117.948 8.47131L109.13 0L100.682 8.85253L88.8726 5.99044L86.0607 17.3783C87.2071 17.3881 88.3436 17.5926 89.4229 17.9834C94.9022 12.9923 101.973 10.1597 109.345 10.0022Z" fill="white"/>
<path d="M100.868 102.352C101.635 102.494 102.418 102.53 103.195 102.461C104.706 102.354 106.141 101.747 107.278 100.735C108.415 99.7225 109.192 98.3601 109.489 96.8575C109.625 95.697 109.669 94.5275 109.62 93.36V90.3345C109.62 89.7294 109.62 89.7294 109.058 89.7294H105.397C104.679 89.7294 104.769 89.681 104.769 90.3345C104.769 92.1498 104.769 93.9651 104.769 95.7804C104.775 96.3373 104.581 96.8775 104.222 97.2997C103.863 97.7219 103.364 97.9971 102.818 98.0737C102.27 98.1835 101.702 98.0833 101.223 97.7925C100.744 97.5017 100.389 97.0411 100.228 96.5004C100.105 96.1095 100.048 95.7003 100.06 95.2902C100.06 93.5839 100.06 91.8715 100.06 90.1651C100.06 89.8081 99.9942 89.6689 99.5994 89.675C98.2872 89.6992 96.9731 89.6992 95.6569 89.675C95.2979 89.675 95.1962 89.7779 95.1962 90.1349C95.1962 91.7928 95.1962 93.4447 95.1962 95.0966C95.1213 96.8572 95.6971 98.5828 96.8115 99.9374C96.9372 100.089 96.9731 100.185 96.8115 100.325C96.3241 100.678 95.9134 101.129 95.6048 101.65C95.2961 102.17 95.096 102.749 95.0167 103.35C94.8449 104.102 94.8747 104.886 95.1029 105.622C95.3311 106.358 95.7495 107.02 96.3149 107.537C97.2044 108.303 98.3491 108.697 99.5157 108.639C100.712 108.639 101.909 108.639 103.141 108.639C103.487 108.605 103.833 108.689 104.126 108.878C104.419 109.066 104.641 109.349 104.757 109.679C104.778 109.756 104.826 109.823 104.892 109.866C104.958 109.91 105.037 109.927 105.115 109.915H109.339C109.59 109.915 109.668 109.825 109.662 109.583C109.561 106.509 107.664 104.246 104.601 103.871C103.345 103.719 102.076 103.816 100.814 103.786C100.703 103.795 100.592 103.778 100.489 103.735C100.387 103.692 100.296 103.624 100.224 103.538C100.153 103.452 100.103 103.35 100.078 103.241C100.054 103.131 100.056 103.017 100.084 102.908C100.093 102.817 100.122 102.729 100.168 102.65C100.214 102.57 100.276 102.502 100.35 102.449C100.425 102.397 100.509 102.361 100.599 102.344C100.688 102.327 100.78 102.33 100.868 102.352Z" fill="white"/>
<path d="M93.1202 99.9979C93.1202 98.7877 93.156 97.5776 93.1202 96.3674C93.0732 94.7658 92.4865 93.2286 91.4571 92.0107C90.734 91.155 89.8242 90.4811 88.7994 90.0422C87.7746 89.6032 86.6629 89.4112 85.5521 89.4814C84.5692 89.4724 83.5949 89.6664 82.6886 90.0513C81.7823 90.4363 80.9632 91.0042 80.2814 91.7203C77.8345 94.2798 77.7866 98.6909 79.5755 101.402C80.1786 102.441 81.0729 103.276 82.1454 103.8C83.2179 104.325 84.4202 104.516 85.6 104.349C86.4745 104.237 87.3021 103.885 87.9931 103.332C88.0649 103.278 88.1307 103.175 88.2324 103.217C88.3341 103.259 88.2863 103.38 88.2982 103.471C88.3072 103.552 88.3072 103.633 88.2982 103.713C88.2444 104.064 88.3999 104.143 88.729 104.137C90.0571 104.137 91.3852 104.137 92.7134 104.137C93.1082 104.137 93.174 104.004 93.174 103.653C93.1142 102.461 93.1202 101.232 93.1202 99.9979ZM85.6897 99.5441C85.3532 99.5568 85.0177 99.4992 84.7043 99.3747C84.3908 99.2503 84.1062 99.0618 83.8681 98.821C83.6299 98.5802 83.4436 98.2922 83.3206 97.9752C83.1976 97.6581 83.1405 97.3189 83.1531 96.9785C83.1391 96.6377 83.1943 96.2976 83.3152 95.9791C83.4361 95.6607 83.6204 95.3706 83.8564 95.1268C84.0923 94.8831 84.3751 94.6908 84.6873 94.5617C84.9995 94.4327 85.3345 94.3697 85.6718 94.3766C86.0121 94.3623 86.3518 94.4191 86.6695 94.5436C86.9872 94.6681 87.276 94.8574 87.518 95.0999C87.76 95.3424 87.9499 95.6328 88.0759 95.9529C88.2019 96.273 88.2613 96.616 88.2503 96.9604C88.2666 97.3045 88.2115 97.6484 88.0885 97.9697C87.9655 98.291 87.7774 98.5828 87.5362 98.8262C87.295 99.0695 87.0061 99.2591 86.6881 99.3828C86.3701 99.5064 86.03 99.5614 85.6897 99.5441Z" fill="white"/>
<path d="M80.4609 84.4468C80.7002 84.005 80.6942 83.999 80.1977 83.999C78.6781 83.999 77.1584 83.999 75.6448 83.999C75.4888 83.9797 75.3308 84.0131 75.1955 84.0941C75.0602 84.1751 74.9552 84.2991 74.897 84.4468C73.7483 86.6614 72.5758 88.87 71.4032 91.1028C71.3434 91.2117 71.3194 91.4054 71.1818 91.4114C71.0442 91.4175 70.9903 91.2057 70.9245 91.0847C69.728 88.8337 68.5315 86.5888 67.3709 84.3379C67.3286 84.2331 67.2537 84.1452 67.1576 84.0873C67.0615 84.0295 66.9495 84.0048 66.8383 84.0171C66.2401 84.0171 65.6837 84.0171 65.1034 84.0171H62.0044C61.7173 84.0171 61.6634 84.1079 61.8129 84.3439C61.8129 84.3863 61.8607 84.4407 61.8906 84.4891C64.1042 88.5917 66.3199 92.6942 68.5375 96.7968C68.6834 97.0541 68.7558 97.3473 68.7468 97.6439C68.7468 98.6362 68.7468 99.6225 68.7468 100.615C68.7468 101.607 68.7468 102.757 68.7468 103.828C68.7468 104.112 68.8366 104.197 69.1178 104.197C70.4758 104.197 71.8279 104.197 73.186 104.197C73.521 104.197 73.6167 104.1 73.6108 103.767C73.6108 102.055 73.6526 100.349 73.6108 98.6423C73.5801 97.6574 73.8315 96.6845 74.3346 95.8407C76.3867 92.0468 78.4148 88.2407 80.4609 84.4468Z" fill="white"/>
<path d="M162.31 98.4065C162.363 97.2418 162.287 96.0747 162.082 94.9272C161.698 93.1415 160.632 91.5816 159.116 90.5867C157.6 89.5918 155.757 89.2424 153.988 89.6144C152.531 89.9229 151.212 90.6983 150.226 91.8254C149.24 92.9526 148.639 94.3714 148.514 95.8711C148.298 98.5396 148.472 101.214 148.424 103.883C148.424 104.173 148.586 104.167 148.789 104.167C150.159 104.167 151.529 104.167 152.899 104.167C153.234 104.167 153.324 104.076 153.324 103.737C153.324 101.565 153.324 99.3988 153.324 97.2265C153.314 96.834 153.352 96.4417 153.437 96.0587C153.522 95.6153 153.747 95.2118 154.078 94.9093C154.41 94.6068 154.829 94.4219 155.274 94.3826C155.686 94.3537 156.096 94.4592 156.444 94.6836C156.791 94.908 157.059 95.2394 157.207 95.6291C157.407 96.1198 157.502 96.6475 157.488 97.1781C157.488 99.3726 157.488 101.569 157.488 103.768C157.488 104.052 157.536 104.173 157.859 104.167C159.227 104.167 160.595 104.167 161.963 104.167C162.286 104.167 162.34 104.052 162.334 103.768C162.334 102.521 162.334 101.269 162.334 100.022C162.31 99.4956 162.316 98.9511 162.31 98.4065Z" fill="white"/>
<path d="M136.788 96.1616C135.915 95.7792 135.005 95.4932 134.072 95.3084C133.353 95.1992 132.651 94.9958 131.984 94.7033C131.844 94.649 131.728 94.546 131.657 94.4129C131.585 94.2797 131.563 94.1252 131.595 93.9772C131.649 93.6323 131.906 93.5294 132.193 93.481C132.564 93.4001 132.951 93.4502 133.29 93.6231C133.628 93.796 133.898 94.0812 134.054 94.431C134.137 94.5883 134.209 94.6972 134.407 94.6912H138.714C138.936 94.6912 139.001 94.6004 138.954 94.3886C138.834 93.6298 138.568 92.9024 138.169 92.2481C137.771 91.5939 137.249 91.0258 136.632 90.5766C135.184 89.635 133.448 89.2546 131.744 89.5055C130.636 89.5611 129.563 89.9186 128.639 90.5403C127.961 90.9943 127.423 91.6325 127.086 92.3816C126.75 93.1307 126.629 93.9604 126.737 94.7759C126.898 96.4944 127.933 97.4504 129.453 98.0011C130.558 98.338 131.68 98.6127 132.815 98.824C133.171 98.8938 133.51 99.0314 133.814 99.2294C133.896 99.2812 133.964 99.3522 134.013 99.4364C134.062 99.5206 134.09 99.6155 134.095 99.7129C134.099 99.8104 134.081 99.9076 134.04 99.9962C134 100.085 133.939 100.162 133.862 100.222C133.294 100.633 131.553 100.506 131.218 99.4714C131.128 99.1992 130.991 99.1568 130.745 99.1628H128.735C128.047 99.1628 127.365 99.1628 126.683 99.1628C126.384 99.1628 126.276 99.2173 126.33 99.5441C126.461 100.529 126.878 101.454 127.527 102.2C128.697 103.482 130.315 104.252 132.037 104.349C133.91 104.536 135.711 104.349 137.296 103.181C139.707 101.492 139.522 97.4323 136.788 96.1616Z" fill="white"/>
<path d="M123.799 83.9931C122.483 83.9931 121.167 83.9931 119.851 83.9931C119.552 83.9931 119.426 84.0596 119.426 84.3985C119.426 90.8528 119.426 97.3192 119.426 103.798C119.426 104.112 119.534 104.179 119.827 104.179C121.137 104.179 122.453 104.179 123.77 104.179C124.296 104.179 124.296 104.179 124.296 103.646V94.1344C124.296 90.9335 124.296 87.7386 124.296 84.5377C124.308 84.1443 124.23 83.981 123.799 83.9931Z" fill="white"/>
<path d="M116.165 89.7597C114.837 89.7597 113.503 89.7597 112.175 89.7597C111.822 89.7597 111.72 89.8686 111.726 90.2256C111.726 92.4584 111.726 94.6973 111.726 96.9361C111.726 99.175 111.726 101.486 111.726 103.762C111.726 104.082 111.81 104.185 112.127 104.179C113.475 104.179 114.817 104.179 116.153 104.179C116.506 104.179 116.608 104.094 116.608 103.731C116.608 99.2294 116.608 94.7295 116.608 90.2317C116.608 89.8868 116.53 89.7537 116.165 89.7597Z" fill="white"/>
<path d="M145.989 97.0147C145.989 94.7395 145.989 92.4583 145.989 90.1831C145.989 89.8624 145.899 89.7596 145.576 89.7656C144.218 89.7656 142.866 89.7656 141.508 89.7656C141.209 89.7656 141.119 89.8685 141.119 90.165C141.119 94.7072 141.119 99.2495 141.119 103.792C141.119 104.1 141.215 104.179 141.514 104.179C142.854 104.179 144.2 104.179 145.54 104.179C145.899 104.179 145.989 104.082 145.989 103.725C145.989 101.492 145.989 99.2535 145.989 97.0147Z" fill="white"/>
<path d="M23.7512 71.1288C23.7512 68.8839 23.7093 66.645 23.7512 64.4062C23.7512 63.674 23.5478 63.5046 22.8478 63.5107C18.3428 63.5107 13.832 63.5107 9.32705 63.5107C8.64503 63.5107 8.36382 63.3836 8.4057 62.6272C8.4715 61.4967 8.4715 60.3632 8.4057 59.2326C8.3698 58.4944 8.62109 58.319 9.32106 58.325C13.6406 58.3553 17.96 58.325 22.2855 58.3553C22.9735 58.3553 23.1469 58.1435 23.135 57.4718C23.0931 55.2995 23.0871 53.1333 23.135 50.961C23.135 50.2349 22.9435 50.0534 22.2376 50.0534C17.8941 50.0897 13.5449 50.0534 9.20144 50.0836C8.60317 50.0836 8.38776 49.896 8.41169 49.2728C8.45357 48.1231 8.45955 46.9613 8.41169 45.8117C8.41169 45.1279 8.59113 44.9222 9.27316 44.9282C13.8319 44.9282 18.3848 44.9282 22.9376 44.9282C23.5359 44.9282 23.7572 44.7951 23.7452 44.1477C23.7093 41.9088 23.7093 39.6679 23.7452 37.425C23.7452 36.8199 23.5419 36.6384 22.9376 36.6384C15.563 36.6384 8.18429 36.6384 0.801676 36.6384C0.143582 36.6384 -0.0119526 36.8442 -0.00596994 37.4795C-0.00596994 43.0706 -0.00596994 48.6556 -0.00596994 54.2467C-0.00596994 59.8377 -0.00596994 65.4288 -0.00596994 71.0199C-0.00596994 71.5221 0.0418827 71.7702 0.658098 71.7641C8.13245 71.7399 15.6069 71.7399 23.0812 71.7641C23.6436 71.8186 23.7572 71.631 23.7512 71.1288Z" fill="white"/>
<path d="M70.8169 71.9336C72.8097 71.5326 74.6666 70.6185 76.2082 69.2798C77.7498 67.9411 78.924 66.2229 79.6174 64.2913C79.9285 63.5107 79.8986 63.4865 79.0191 63.4865C76.5184 63.4865 74.0236 63.4865 71.5228 63.4865C71.0886 63.4707 70.6635 63.6148 70.3263 63.8919C68.1486 65.562 64.8342 64.848 63.6975 62.4821C63.3744 61.8165 63.4223 61.7317 64.1581 61.7317H71.8639C74.4125 61.7317 76.9611 61.7317 79.5038 61.7317C80.1678 61.7317 80.3832 61.4776 80.3952 60.8846C80.3952 60.4126 80.4429 59.9407 80.4489 59.4687C80.4489 55.4146 79.1866 51.9232 76.0995 49.2305C74.1443 47.5507 71.7168 46.5347 69.1597 46.326C66.2859 45.9433 63.3669 46.5168 60.8437 47.9598C56.5482 50.5315 54.6456 54.5009 54.6935 59.4566C54.7414 64.1945 56.614 68.0247 60.7181 70.5056C63.7657 72.3121 67.3963 72.8255 70.8169 71.9336ZM63.6377 56.3827C63.9543 55.5896 64.5036 54.9138 65.2118 54.4464C65.92 53.9789 66.7529 53.7424 67.5982 53.7687C68.432 53.7374 69.2553 53.9638 69.9587 54.4178C70.662 54.8719 71.2118 55.532 71.5348 56.3101C71.7681 56.8728 71.6365 56.9878 71.0681 56.9757C69.9015 56.9394 68.7348 56.9757 67.5682 56.9757C66.4016 56.9757 65.2351 56.9757 64.0684 56.9757C63.5839 56.9757 63.4283 56.9152 63.6138 56.3827H63.6377Z" fill="white"/>
<path d="M189.663 49.2606C187.714 47.5756 185.29 46.555 182.735 46.344C179.458 45.9133 176.139 46.7143 173.408 48.595C167.706 52.6007 166.946 60.7574 169.86 65.9188C172.618 70.8019 177.039 72.6353 182.388 72.2178C187.551 71.8064 191.194 69.1379 193.157 64.2427C193.45 63.5105 193.426 63.4863 192.672 63.4863C190.081 63.4863 187.491 63.4863 184.894 63.4863C184.524 63.4866 184.166 63.6244 183.889 63.8736C181.694 65.5678 178.325 64.8478 177.213 62.4516C176.92 61.8465 176.967 61.7316 177.661 61.7316H185.367C187.964 61.7316 190.554 61.7316 193.145 61.7316C193.647 61.7316 193.88 61.5682 193.898 61.0659C193.916 60.5637 193.976 60.0312 193.976 59.5108C194.036 55.4446 192.75 51.9654 189.663 49.2606ZM184.709 56.9695C183.512 56.9695 182.28 56.9695 181.065 56.9695C179.851 56.9695 178.672 56.9695 177.476 56.9695C177.045 56.9695 176.949 56.8606 177.111 56.437C177.414 55.6376 177.953 54.9523 178.656 54.4747C179.358 53.9971 180.189 53.7504 181.036 53.7685C181.893 53.7292 182.742 53.9609 183.463 54.4315C184.185 54.9021 184.744 55.5882 185.062 56.3946C185.253 56.8303 185.212 56.9816 184.715 56.9695H184.709Z" fill="white"/>
<path d="M151.756 71.0561C151.756 68.908 151.756 66.7599 151.756 64.6119C151.756 63.0326 151.756 61.4533 151.756 59.874C151.784 58.0547 151.524 56.2427 150.985 54.5068C150.063 51.6609 148.122 49.2662 145.544 47.7929C142.966 46.3196 139.937 45.8741 137.051 46.5437C134.551 47.1174 132.297 48.4832 130.617 50.4421C128.937 52.401 127.92 54.851 127.712 57.4354C127.353 62.0523 127.64 66.6813 127.562 71.3042C127.562 71.8125 127.844 71.7943 128.161 71.7943C130.554 71.7943 132.947 71.7943 135.34 71.7943C135.938 71.7943 136.094 71.6491 136.088 71.05C136.058 67.2561 136.088 63.4561 136.088 59.6561C136.073 58.9719 136.145 58.2885 136.303 57.623C136.453 56.9144 136.808 56.2673 137.324 55.7648C137.84 55.2623 138.493 54.9274 139.199 54.8033C139.872 54.6875 140.564 54.7882 141.178 55.091C141.792 55.3938 142.297 55.8836 142.621 56.4915C143.147 57.4454 143.4 58.5287 143.351 59.6198C143.351 63.438 143.351 67.2621 143.351 71.0863C143.351 71.637 143.506 71.8004 144.057 71.7943C146.396 71.7943 148.729 71.758 151.068 71.7943C151.637 71.8306 151.762 71.6188 151.756 71.0561Z" fill="white"/>
<path d="M28.1305 71.8187C30.4937 71.8187 32.8509 71.7824 35.2081 71.8187C35.8063 71.8187 35.9439 71.6251 35.9379 71.0563C35.9379 67.2805 35.9379 63.5047 35.9379 59.735C35.9247 59.0495 35.9929 58.3648 36.1413 57.6958C36.2958 56.9138 36.7007 56.2051 37.2932 55.6791C37.8858 55.153 38.6332 54.8389 39.4199 54.7853C40.8797 54.6703 42.2018 55.6203 42.818 57.2057C43.0907 57.9819 43.2184 58.8026 43.1948 59.626C43.1948 63.42 43.1948 67.22 43.1948 71.02C43.1948 71.5827 43.3145 71.7945 43.9187 71.7824C46.258 71.7461 48.5913 71.7824 50.9305 71.7824C51.469 71.7824 51.6484 71.6493 51.6365 71.0805C51.6065 68.9082 51.6365 66.7359 51.6365 64.5697C51.6365 62.8694 51.6365 61.169 51.6365 59.4748C51.653 57.75 51.3861 56.0344 50.8467 54.3981C50.2125 52.5087 49.1247 50.808 47.6808 49.4484C46.2369 48.0888 44.4821 47.1128 42.5735 46.6079C40.6649 46.1029 38.6622 46.0849 36.7451 46.5553C34.8279 47.0257 33.0562 47.9698 31.5885 49.3032C28.6869 51.9837 27.5023 55.4267 27.4664 59.3175C27.4305 63.2082 27.4664 67.1474 27.4664 71.0623C27.4125 71.6553 27.5741 71.8248 28.1305 71.8187Z" fill="white"/>
<path d="M109.297 46.7375C106.988 46.7375 104.673 46.7738 102.358 46.7375C101.646 46.7375 101.466 46.9372 101.466 47.6512C101.49 55.5779 101.49 63.5046 101.466 71.4313C101.466 72.9743 100.868 73.7004 99.408 74.1119C99.0182 74.221 98.6159 74.278 98.2115 74.2813C97.7987 74.2813 97.6132 74.4508 97.6432 74.8864C97.6432 77.1979 97.6432 79.5094 97.6432 81.8208C97.6432 82.2202 97.7808 82.3775 98.1757 82.3412C98.8936 82.2807 99.6234 82.2625 100.335 82.1657C102.702 81.9476 104.948 81.0111 106.779 79.4791C109.13 77.4036 109.95 74.6686 109.962 71.6129C109.962 67.7463 109.962 63.8737 109.962 60.0072C109.962 55.832 109.962 51.6569 109.962 47.4818C110.015 46.8948 109.848 46.7314 109.297 46.7375Z" fill="white"/>
<path d="M163.674 36.6868C161.412 36.6868 159.145 36.7231 156.883 36.6868C156.201 36.6868 156.016 36.8925 156.022 37.5642C156.022 43.131 156.022 48.6918 156.022 54.2587C156.022 59.8255 156.022 65.4771 156.022 71.0924C156.022 71.643 156.166 71.8185 156.728 71.8125C159.061 71.8125 161.394 71.7761 163.734 71.8125C164.332 71.8125 164.523 71.6733 164.523 71.0319C164.523 59.8538 164.523 48.6797 164.523 37.5097C164.535 36.832 164.29 36.6868 163.674 36.6868Z" fill="white"/>
<path d="M98.1277 54.1982C98.1277 51.7254 98.1277 49.2485 98.1277 46.7676C98.1277 46.3683 97.9902 46.2352 97.5953 46.2533C96.4766 46.2906 95.3624 46.416 94.2629 46.6285C88.2803 47.7963 83.7813 52.0259 83.4941 58.5004C83.4044 60.5214 83.4941 62.5545 83.4941 64.5816H83.4402C83.4402 66.7478 83.4402 68.9201 83.4402 71.0864C83.4402 71.6309 83.572 71.8246 84.1403 71.8185C86.5334 71.8185 88.9264 71.7822 91.2836 71.8185C91.8819 71.8185 91.9775 71.637 91.9715 71.0985C91.9715 67.2561 91.9715 63.4138 91.9715 59.5654C91.9271 58.6507 92.1805 57.7465 92.6926 56.9913C93.2048 56.2361 93.9476 55.6716 94.8073 55.3842C95.7001 55.0239 96.6468 54.8193 97.6072 54.7791C98.002 54.7912 98.1277 54.6218 98.1277 54.1982Z" fill="white"/>
<path d="M123.147 71.0198C123.147 67.1048 123.147 63.196 123.147 59.281C123.147 55.366 123.147 51.4148 123.147 47.4696C123.147 46.931 123.01 46.7253 122.441 46.7313C120.084 46.7313 117.727 46.7313 115.37 46.7313C114.861 46.7313 114.682 46.8644 114.682 47.409C114.682 55.3277 114.682 63.2464 114.682 71.165C114.682 71.6612 114.819 71.8125 115.316 71.8064C117.673 71.8064 120.03 71.7701 122.387 71.8064C123.022 71.8306 123.147 71.6128 123.147 71.0198Z" fill="white"/>
<path d="M114.544 40.6684C114.527 41.2484 114.63 41.8255 114.846 42.363C115.062 42.9005 115.386 43.3866 115.798 43.7902C116.21 44.1939 116.701 44.5063 117.239 44.7074C117.777 44.9086 118.351 44.9941 118.924 44.9585C121.52 44.9585 123.249 43.234 123.255 40.6503C123.293 40.0589 123.206 39.4661 122.998 38.9118C122.791 38.3575 122.469 37.8544 122.054 37.4365C121.638 37.0186 121.139 36.6955 120.59 36.489C120.041 36.2825 119.454 36.1973 118.87 36.2391C118.29 36.2137 117.712 36.3113 117.172 36.5256C116.633 36.74 116.143 37.0663 115.736 37.4836C115.328 37.9008 115.012 38.3998 114.806 38.9483C114.601 39.4969 114.512 40.0828 114.544 40.6684Z" fill="white"/>
<path d="M105.684 36.2391C105.104 36.2091 104.525 36.3031 103.984 36.515C103.443 36.727 102.952 37.052 102.544 37.469C102.136 37.8859 101.819 38.3853 101.615 38.9346C101.41 39.4838 101.323 40.0705 101.358 40.6563C101.358 43.24 103.123 44.9585 105.714 44.9585C108.304 44.9585 110.045 43.24 110.057 40.6623C110.096 40.0713 110.01 39.4787 109.803 38.9243C109.597 38.3698 109.276 37.8664 108.862 37.4475C108.448 37.0287 107.951 36.7042 107.402 36.4958C106.854 36.2874 106.268 36.1999 105.684 36.2391Z" fill="white"/>
<path d="M52.121 90.4978C51.3047 90.5309 50.5347 90.8905 49.9805 91.4975C49.4262 92.1046 49.1331 92.9095 49.1654 93.7351C49.1997 94.5602 49.5557 95.3379 50.1556 95.8981C50.7555 96.4583 51.5503 96.7554 52.3662 96.7242C53.182 96.6896 53.951 96.3296 54.5049 95.7229C55.0588 95.1161 55.3524 94.3122 55.3216 93.487C55.2874 92.6619 54.9315 91.8842 54.3316 91.324C53.7318 90.7637 52.9369 90.4667 52.121 90.4978Z" fill="white"/>
<path d="M41.412 84.7616C40.437 85.3161 39.7198 86.2396 39.418 87.329C39.1162 88.4184 39.2546 89.5843 39.8027 90.5705C40.0707 91.0622 40.4328 91.4952 40.8678 91.8441C41.3027 92.1931 41.8018 92.451 42.3363 92.6031C42.8707 92.7551 43.4298 92.7981 43.9808 92.7297C44.5318 92.6612 45.064 92.4826 45.5461 92.2043C46.5209 91.6496 47.2384 90.7266 47.5412 89.6376C47.844 88.5486 47.7075 87.3826 47.1614 86.3954C46.613 85.4078 45.6993 84.681 44.6211 84.3746C43.543 84.0682 42.3887 84.2074 41.412 84.7616Z" fill="white"/>
<path d="M36.6678 94.9935C35.1405 95.055 33.6996 95.7265 32.6611 96.8608C31.6226 97.9951 31.0712 99.4996 31.1279 101.044C31.1886 102.589 31.8524 104.047 32.9739 105.097C34.0954 106.147 35.5831 106.705 37.1105 106.648C38.6378 106.585 40.0783 105.913 41.1174 104.779C42.1566 103.645 42.7099 102.142 42.6565 100.597C42.5927 99.052 41.927 97.5956 40.8049 96.5458C39.6828 95.4959 38.1954 94.9378 36.6678 94.9935Z" fill="white"/>
<path d="M16.5779 84.2291C14.7505 85.2695 13.4061 87.0008 12.8396 89.0429C12.2732 91.0849 12.531 93.2709 13.5567 95.1208C14.0649 96.0371 14.7467 96.8431 15.563 97.4929C16.3792 98.1427 17.314 98.6234 18.314 98.9078C19.314 99.1921 20.3596 99.2744 21.3911 99.15C22.4225 99.0255 23.4196 98.6968 24.3255 98.1826C26.1539 97.1433 27.4998 95.4125 28.0674 93.3703C28.635 91.3281 28.3779 89.1416 27.3527 87.2909C26.3251 85.44 24.6127 84.0777 22.5922 83.5035C20.5716 82.9293 18.4083 83.1903 16.5779 84.2291Z" fill="white"/>
<path d="M32.5338 17.6142C31.6731 17.607 30.8416 17.2968 30.1825 16.7368L30.0749 16.6521V25.2807C30.0749 28.4938 30.0749 31.7068 30.0749 34.9199C30.0749 35.295 30.1766 35.3918 30.5416 35.3858C31.8697 35.3858 33.2038 35.3858 34.5319 35.3858C34.861 35.3858 34.9329 35.2769 34.9329 34.9683C34.9329 28.881 34.9329 22.7918 34.9329 16.7005C34.2674 17.2861 33.416 17.6103 32.5338 17.6142Z" fill="white"/>
<path d="M30.2723 13.6933C30.9125 14.1835 31.6124 14.5828 32.2346 15.0911C32.5218 15.321 32.5875 15.315 32.8747 15.0911C33.3054 14.7341 33.7541 14.4013 34.2148 14.0867C34.744 13.7396 35.2233 13.3201 35.6387 12.8402C36.2043 12.2282 36.5354 11.4321 36.5721 10.5953C36.5641 10.2365 36.4822 9.88332 36.3318 9.55828C36.1814 9.23323 35.9657 8.94344 35.6985 8.70736C34.9566 8.05991 33.132 8.10225 32.6534 9.0704C32.5517 9.27008 32.426 9.23983 32.3064 9.0704C32.2185 8.92004 32.1002 8.79014 31.9593 8.68919C31.6372 8.46559 31.2629 8.33118 30.8735 8.29934C30.4841 8.26749 30.0932 8.33931 29.7398 8.50767C29.2229 8.76909 28.8169 9.21088 28.597 9.75143C28.377 10.292 28.358 10.8947 28.5432 11.4484C28.8789 12.358 29.4824 13.1416 30.2723 13.6933Z" fill="white"/>
<path d="M54.6577 35.3859C55.9979 35.3859 57.344 35.3859 58.6841 35.3859C59.0131 35.3859 59.1208 35.3012 59.1208 34.9563C59.1208 30.8054 59.1208 26.6585 59.1208 22.5156C58.454 23.0936 57.6059 23.4131 56.7277 23.4172C55.8654 23.4129 55.0325 23.0999 54.3766 22.5337L54.2628 22.4551C54.2628 24.3551 54.2628 26.2571 54.2628 28.1611C54.2628 30.4242 54.2628 32.6872 54.2628 34.9503C54.2568 35.2831 54.3347 35.3859 54.6577 35.3859Z" fill="white"/>
<path d="M41.5377 39.9119C42.8658 39.9119 44.1941 39.9119 45.5222 39.9119C45.8738 39.8785 46.2263 39.9652 46.5235 40.1583C46.8206 40.3513 47.0453 40.6396 47.1614 40.9769C47.1811 41.0477 47.2266 41.1083 47.2888 41.1465C47.351 41.1847 47.4253 41.1976 47.4965 41.1826H51.7202C51.9595 41.1826 52.0492 41.11 52.0492 40.8559C52.0723 39.4202 51.5548 38.0295 50.6016 36.9654C49.6485 35.9014 48.3309 35.2437 46.9161 35.1256C45.6597 34.9985 44.3975 35.0893 43.1351 35.053C42.6685 35.053 42.4291 34.702 42.477 34.1817C42.5248 33.6613 42.8061 33.4314 43.2607 33.5221C44.0396 33.669 44.8346 33.7077 45.6239 33.6371C47.2869 33.5301 48.8544 32.8136 50.0327 31.6218C51.2111 30.43 51.9195 28.8446 52.0253 27.1626C52.0791 26.2428 52.0253 25.3473 52.0253 24.3973H52.0552C52.0552 23.411 52.0552 22.4186 52.0552 21.4323C52.0552 21.0693 51.9715 20.9362 51.5886 20.9422C50.3023 20.9422 49.0101 20.9422 47.7238 20.9422C47.1913 20.9422 47.1914 20.9422 47.1914 21.4686C47.1914 23.3263 47.1914 25.1839 47.1914 27.0416C47.1933 27.5914 46.9997 28.1236 46.6461 28.5412C46.2925 28.9588 45.8023 29.234 45.2648 29.3167C44.7125 29.4344 44.1367 29.3371 43.6522 29.0444C43.1676 28.7517 42.81 28.285 42.6505 27.7374C42.5295 27.3462 42.4748 26.937 42.4889 26.5272C42.4889 24.7906 42.4889 23.054 42.4889 21.3234C42.4889 21.0209 42.3993 20.9241 42.0941 20.9241C40.754 20.9241 39.4119 20.9241 38.0678 20.9241C37.7089 20.9241 37.6191 21.033 37.6251 21.3839C37.6251 23.1085 37.6251 24.8269 37.6251 26.5514C37.6193 26.9848 37.6492 27.418 37.7148 27.8463C37.908 29.056 38.4229 30.1897 39.2045 31.1259C39.3241 31.2651 39.4438 31.3801 39.2045 31.5435C38.7161 31.8962 38.3047 32.3469 37.996 32.8674C37.6872 33.3879 37.4876 33.9671 37.4097 34.5689C37.2348 35.33 37.2653 36.1246 37.4979 36.8697C37.7305 37.6148 38.1566 38.283 38.7318 38.8046C39.5037 39.5051 40.5007 39.8985 41.5377 39.9119Z" fill="white"/>
<path d="M54.6875 19.2783C55.2858 19.72 55.8841 20.0771 56.4465 20.5309C56.7038 20.7366 56.7636 20.7306 57.0448 20.5309C57.4277 20.2162 57.8345 19.9258 58.2413 19.6353C58.7143 19.3224 59.1429 18.9457 59.5156 18.5159C60.0221 17.9683 60.3191 17.2561 60.3532 16.507C60.3457 16.1854 60.2715 15.8689 60.1354 15.5781C59.9994 15.2873 59.8045 15.0287 59.5635 14.8188C58.8994 14.2137 57.2661 14.2682 56.8413 15.1395C56.7516 15.321 56.6379 15.2968 56.5302 15.1395C56.451 15.0059 56.345 14.8905 56.2191 14.8007C55.9309 14.6006 55.5959 14.4802 55.2475 14.4516C54.8991 14.4229 54.5492 14.4869 54.2328 14.6373C53.7692 14.8702 53.4052 15.2656 53.2082 15.7497C53.0112 16.2339 52.9949 16.7739 53.162 17.2694C53.456 18.0808 53.9883 18.7818 54.6875 19.2783Z" fill="white"/>
<path d="M70.2784 35.3859C71.6265 35.3859 72.9686 35.3859 74.3048 35.3859C74.6398 35.3859 74.7415 35.2952 74.7415 34.9563C74.7415 30.995 74.7415 27.0336 74.7415 23.0723C74.0027 23.4923 73.1897 23.7616 72.3484 23.865C71.4878 23.6874 70.6575 23.3837 69.8836 22.9634C69.8836 24.6859 69.8836 26.4104 69.8836 28.1369C69.8836 30.4121 69.8836 32.6933 69.8836 34.9684C69.8776 35.2831 69.9554 35.3859 70.2784 35.3859Z" fill="white"/>
<path d="M77.7148 25.2748C77.7148 28.4879 77.7148 31.7009 77.7148 34.914C77.7148 35.2891 77.8165 35.392 78.1875 35.3859C79.5156 35.3859 80.8498 35.3859 82.178 35.3859C82.4951 35.3859 82.5967 35.2952 82.5908 34.9745C82.5908 34.0124 82.5908 33.0503 82.5908 32.0882C82.5908 31.7554 82.6505 31.6707 82.9616 31.8401C83.5903 32.1804 84.1601 32.6219 84.6488 33.1471C85.185 33.7533 85.6712 34.4029 86.1025 35.0894C86.2042 35.2528 86.3001 35.386 86.5334 35.3799C88.1607 35.3799 89.7819 35.3799 91.4092 35.3799C91.6545 35.3799 91.6785 35.2952 91.5827 35.0955C90.8469 33.4463 89.784 31.9675 88.4598 30.7509C88.2025 30.527 88.2145 30.4302 88.4598 30.2366C89.1625 29.7704 89.7611 29.1608 90.2175 28.4471C90.6739 27.7334 90.9779 26.9311 91.1101 26.0917C91.33 25.065 91.1709 23.9924 90.6628 23.0762C90.1548 22.1599 89.3329 21.4634 88.352 21.1178C87.4861 20.7854 86.5626 20.6338 85.6372 20.6723C84.7117 20.7108 83.8036 20.9385 82.9676 21.3417C82.5428 21.5353 82.5488 21.5414 82.5488 21.0815V15.7507C82.5488 15.2061 82.5489 15.2061 81.9865 15.2061C80.7242 15.2061 79.4618 15.2061 78.1994 15.2061C77.7986 15.2061 77.679 15.3089 77.679 15.7264C77.7209 18.9032 77.7148 22.086 77.7148 25.2748ZM82.7104 27.1688C82.9473 26.6271 83.3175 26.1558 83.7857 25.7999C84.2538 25.4439 84.8043 25.2153 85.3846 25.1356C85.5316 25.1175 85.6803 25.1175 85.8273 25.1356C86.3359 25.2082 86.4975 25.4624 86.3479 25.9586C86.2672 26.1744 86.1423 26.3706 85.9814 26.5343C85.8206 26.698 85.6275 26.8256 85.4146 26.9086C84.6408 27.2497 83.811 27.4426 82.9676 27.4774C82.7163 27.5076 82.5728 27.4774 82.7104 27.1688Z" fill="white"/>
<path d="M62.5249 35.3797C63.8351 35.3797 65.1513 35.3797 66.4675 35.3797C66.8624 35.3797 66.958 35.2648 66.958 34.8775C66.958 31.6766 66.958 28.4817 66.958 25.2807C66.958 22.0798 66.958 18.8546 66.958 15.6476C66.958 15.3269 66.8922 15.1877 66.5332 15.1938C65.1931 15.1938 63.853 15.1938 62.5129 15.1938C62.1599 15.1938 62.0882 15.3269 62.0882 15.6416C62.0882 22.0959 62.0882 28.5341 62.0882 34.9562C62.0822 35.3192 62.2317 35.3858 62.5249 35.3797Z" fill="white"/>
<path d="M70.3323 19.2783C70.9006 19.72 71.5288 20.0771 72.0912 20.5309C72.3424 20.7366 72.4082 20.7306 72.6894 20.5309C73.0723 20.2162 73.4732 19.9258 73.886 19.6353C74.3601 19.324 74.7891 18.9472 75.1603 18.5159C75.6686 17.9689 75.9676 17.2568 76.0039 16.507C75.9938 16.1859 75.9184 15.8703 75.7826 15.5798C75.6467 15.2894 75.4532 15.0303 75.2141 14.8188C74.55 14.2137 72.9167 14.2682 72.486 15.1395C72.3962 15.321 72.2885 15.2968 72.1808 15.1395C72.0996 15.0074 71.9941 14.8923 71.8699 14.8007C71.5805 14.6006 71.2444 14.4803 70.8951 14.4517C70.5457 14.423 70.1951 14.487 69.8776 14.6373C69.4142 14.8703 69.0506 15.2659 68.8546 15.7503C68.6586 16.2347 68.6437 16.7747 68.8127 17.2694C69.102 18.0817 69.6328 18.7834 70.3323 19.2783Z" fill="white"/>
</g>
<defs>
<clipPath id="clip0_0_255">
<rect width="194" height="110" fill="white"/>
</clipPath>
</defs>
</svg>
