<svg width="98" height="165" viewBox="0 0 98 165" fill="none" xmlns="http://www.w3.org/2000/svg">
<path d="M79.2173 2.23144e-05H33.844C33.2747 -0.00221268 32.7185 0.172271 32.251 0.499773C31.7835 0.827276 31.4273 1.29191 31.2309 1.83056L0.177971 86.1822C0.0193634 86.6066 -0.0343704 87.0636 0.0213547 87.5136C0.0770798 87.9636 0.240578 88.3932 0.49781 88.7653C0.755043 89.1373 1.09826 89.4407 1.4978 89.6492C1.89734 89.8577 2.34123 89.9651 2.79115 89.9621H45.073C45.5272 89.9543 45.9764 90.059 46.381 90.2672C46.7856 90.4754 47.1332 90.7806 47.3934 91.156C47.6535 91.5314 47.8181 91.9654 47.8728 92.42C47.9275 92.8746 47.8705 93.3357 47.7069 93.7629L21.9081 161.088C21.6307 161.729 21.6017 162.451 21.8268 163.112C22.0519 163.773 22.5147 164.326 23.1239 164.66C23.7331 164.994 24.4445 165.086 25.1176 164.918C25.7908 164.749 26.3768 164.332 26.7601 163.75L97.4609 65.8157C97.7657 65.3981 97.9491 64.9032 97.9909 64.3865C98.0326 63.8697 97.9309 63.3515 97.6971 62.8896C97.4634 62.4278 97.1068 62.0407 96.6672 61.7714C96.2277 61.5022 95.7225 61.3615 95.2082 61.3651H63.7601C63.3069 61.3674 62.86 61.2576 62.4586 61.0454C62.0571 60.8332 61.7135 60.525 61.4576 60.1478C61.2018 59.7706 61.0416 59.336 60.991 58.8819C60.9405 58.4279 61.0012 57.9683 61.1678 57.5433L81.8097 3.81482C81.9748 3.39025 82.0343 2.93139 81.9831 2.47829C81.9319 2.02519 81.7714 1.59161 81.5158 1.21537C81.2601 0.83914 80.917 0.531687 80.5163 0.319842C80.1157 0.107997 79.6697 -0.00179982 79.2173 2.23144e-05Z" fill="#FCD100" fill-opacity="0.7"/>
</svg>
